<?xml version="1.0" ?><svg height="512" id="svg2" version="1.1" viewBox="0 0 512.00001 512" width="512" xml:space="preserve" xmlns="http://www.w3.org/2000/svg" xmlns:cc="http://creativecommons.org/ns#" xmlns:dc="http://purl.org/dc/elements/1.1/" xmlns:rdf="http://www.w3.org/1999/02/22-rdf-syntax-ns#" xmlns:svg="http://www.w3.org/2000/svg" xmlns:xlink="http://www.w3.org/1999/xlink"><defs id="defs16"/><g id="g2988"><g id="g2995" style="fill:#3476b2;fill-opacity:1" transform="matrix(1.2854471,0,0,1.2854471,1.4172499e-6,-3.58275e-6)"><g id="g8" style="fill:#3476b2;fill-opacity:1"><g id="Guides_For_Artboard" style="fill:#3476b2;fill-opacity:1"/><g id="Слой_1" style="fill:#3476b2;fill-opacity:1"><path d="m 332.296,138.77 c -37.229,27.322 -56.701,65.385 -26.324,107.305 9.838,13.576 38.462,30.099 35.743,40.389 -2.225,8.419 -24.894,42.768 -31.352,50.905 -50.938,64.18 -69.552,12.274 -112.752,14.739 -25.773,1.47 -30.936,22.912 -62.573,17.973 C 117.105,367.28 97.955,349.993 86.971,336.089 65.056,308.346 45.095,252.069 42.375,217.048 c -3.35,-43.133 15.446,-86.821 53.54,-109.141 56.4,-33.046 92.701,28.466 126.46,11.126 23.924,-12.288 32.128,-22.341 63.463,-14.094 17.7,4.659 36.658,18.458 46.458,33.831 l 0,0 z M 55.992,0 C 53.464,0.209 51.043,0.457 48.757,0.75 22.05,4.179 3.202,25.082 0.43,51.437 0.27,52.948 0.128,54.504 0,56.096 v 94.675 c 0,33.255 0,66.509 0,99.764 v 92.774 c 0.188,2.204 0.408,4.318 0.664,6.325 3.431,26.979 23.863,45.717 50.707,48.307 1.38,0.134 2.79,0.254 4.227,0.364 h 95.173 c 33.255,0 66.51,0 99.764,0 h 92.569 c 2.271,-0.195 4.446,-0.423 6.507,-0.688 26.867,-3.464 45.764,-23.899 48.333,-50.682 0.132,-1.382 0.252,-2.795 0.361,-4.232 v -95.169 c 0,-33.255 0,-66.509 0,-99.763 V 55.414 c -0.208,-2.346 -0.452,-4.577 -0.74,-6.666 C 393.932,22.401 373.257,3.018 346.889,0.41 345.354,0.258 343.781,0.122 342.175,0 H 247.534 C 214.279,0 181.025,0 147.77,0 H 55.992 l 0,0 z m 141.285,95.264 c 15.806,0.276 39.94,-12.168 51.208,-23.053 16.562,-15.997 18.553,-32.889 18.553,-54.958 -40.365,-0.328 -69.761,41.42 -69.761,78.011 z" id="path12" style="fill:#3476b2;fill-opacity:1;fill-rule:evenodd"/></g></g></g></g></svg>