<?xml version="1.0" encoding="UTF-8" standalone="no"?>
<!DOCTYPE svg PUBLIC "-//W3C//DTD SVG 1.1//EN" "http://www.w3.org/Graphics/SVG/1.1/DTD/svg11.dtd">
<svg xmlns="http://www.w3.org/2000/svg" version="1.1" viewBox="0 0 600 115">
<path fill="#377dff" d="
  M 59.06 0.00
  L 60.15 -0.03
  L 74.04 41.89
  A 1.24 1.22 80.7 0 0 75.20 42.74
  L 164.15 42.74
  A 1.34 1.30 -80.8 0 0 165.40 41.81
  L 179.06 0.00
  L 180.15 -0.03
  L 194.04 41.89
  A 1.24 1.22 80.7 0 0 195.20 42.74
  L 284.15 42.74
  A 1.34 1.30 -80.8 0 0 285.40 41.81
  L 299.06 0.00
  L 300.15 -0.03
  L 314.04 41.89
  A 1.24 1.22 80.7 0 0 315.20 42.74
  L 404.15 42.74
  A 1.34 1.30 -80.8 0 0 405.40 41.81
  L 419.06 0.00
  L 420.15 -0.03
  L 434.04 41.89
  A 1.24 1.22 80.7 0 0 435.20 42.74
  L 524.15 42.74
  A 1.34 1.30 -80.8 0 0 525.40 41.81
  L 539.06 0.00
  L 540.19 -0.04
  L 554.07 42.00
  A 1.11 1.09 80.8 0 0 555.11 42.76
  Q 577.38 42.62 598.50 43.00
  Q 599.54 43.02 599.79 43.50
  Q 599.78 43.87 599.25 44.25
  Q 581.47 56.91 564.04 70.08
  A 1.40 1.40 -27.5 0 0 563.55 71.62
  Q 569.84 91.21 575.81 109.65
  Q 575.84 109.76 576.44 111.18
  Q 576.93 112.36 576.67 113.38
  A 0.55 0.54 -64.8 0 1 575.82 113.69
  L 540.71 88.33
  A 1.42 1.42 -44.2 0 0 539.07 88.31
  Q 521.02 100.66 503.18 114.10
  Q 501.69 115.23 502.26 113.44
  L 515.76 71.48
  A 1.23 1.20 -63.5 0 0 515.32 70.12
  L 480.39 44.49
  A 1.20 1.20 0.0 0 0 478.97 44.49
  L 444.02 70.09
  A 1.38 1.35 63.0 0 0 443.54 71.62
  L 456.75 112.51
  Q 457.54 114.93 455.48 113.45
  L 420.96 88.50
  A 1.87 1.81 44.8 0 0 418.81 88.47
  L 382.60 114.47
  Q 381.73 115.10 382.06 114.08
  L 395.66 71.78
  A 1.65 1.62 -63.2 0 0 395.08 69.95
  L 360.33 44.49
  A 1.19 1.18 44.7 0 0 358.92 44.49
  L 324.06 70.06
  A 1.44 1.41 63.2 0 0 323.56 71.64
  Q 329.84 91.21 335.81 109.65
  Q 335.84 109.76 336.44 111.18
  Q 336.93 112.36 336.67 113.38
  A 0.55 0.54 -64.8 0 1 335.82 113.69
  L 300.71 88.33
  A 1.42 1.42 -44.2 0 0 299.07 88.31
  Q 281.02 100.66 263.18 114.10
  Q 261.69 115.23 262.26 113.44
  L 275.76 71.48
  A 1.23 1.20 -63.5 0 0 275.32 70.12
  L 240.39 44.49
  A 1.20 1.20 -44.7 0 0 238.97 44.49
  L 204.02 70.09
  A 1.38 1.35 63.0 0 0 203.54 71.62
  L 216.75 112.51
  Q 217.54 114.93 215.48 113.45
  L 180.96 88.50
  A 1.87 1.81 44.8 0 0 178.81 88.47
  L 142.60 114.47
  Q 141.73 115.10 142.06 114.08
  L 155.66 71.78
  A 1.65 1.62 -63.2 0 0 155.08 69.95
  L 120.33 44.49
  A 1.19 1.18 44.7 0 0 118.92 44.49
  L 84.06 70.06
  A 1.44 1.41 63.2 0 0 83.56 71.64
  Q 89.84 91.21 95.81 109.65
  Q 95.84 109.76 96.44 111.18
  Q 96.93 112.36 96.67 113.38
  A 0.55 0.54 -64.8 0 1 95.82 113.69
  L 60.71 88.33
  A 1.42 1.42 -44.2 0 0 59.07 88.31
  Q 41.02 100.66 23.18 114.10
  Q 21.69 115.23 22.26 113.44
  L 35.76 71.48
  A 1.22 1.22 -63.0 0 0 35.32 70.12
  L 0.00 44.19
  L 0.00 43.19
  L 43.58 42.76
  A 2.09 2.09 8.9 0 0 45.55 41.33
  L 59.06 0.00
  Z"
/>
</svg>
