<?xml version="1.0" encoding="UTF-8" standalone="no"?>
<!DOCTYPE svg PUBLIC "-//W3C//DTD SVG 1.1//EN" "http://www.w3.org/Graphics/SVG/1.1/DTD/svg11.dtd">
<svg xmlns="http://www.w3.org/2000/svg" version="1.1" viewBox="0 0 600 115">
<g stroke-width="2.00" fill="none" stroke-linecap="butt">
<path stroke="#808080" vector-effect="non-scaling-stroke" d="
  M 120.00 45.29
  L 120.04 45.50"
/>
<path stroke="#808080" vector-effect="non-scaling-stroke" d="
  M 240.00 45.29
  L 240.04 45.50"
/>
<path stroke="#808080" vector-effect="non-scaling-stroke" d="
  M 360.00 45.29
  L 360.04 45.50"
/>
<path stroke="#808080" vector-effect="non-scaling-stroke" d="
  M 480.00 45.29
  L 480.04 45.50"
/>
</g>
<path fill="#808080" d="
  M 59.67 -0.05
  L 60.81 0.00
  L 74.28 44.10
  A 1.30 1.29 -8.5 0 0 75.52 45.01
  L 120.00 45.29
  L 120.04 45.50
  Q 101.70 59.07 84.14 73.73
  A 1.71 1.70 62.1 0 0 83.60 75.51
  L 95.15 114.94
  L 89.94 115.00
  L 61.17 92.80
  A 1.36 1.32 45.1 0 0 59.53 92.77
  L 30.69 115.00
  L 25.23 114.89
  L 36.76 75.48
  A 1.76 1.68 -63.4 0 0 36.20 73.64
  L 0.55 45.54
  Q -0.13 45.00 0.73 45.00
  L 44.76 45.00
  A 1.38 1.36 -81.3 0 0 46.06 44.03
  L 59.67 -0.05
  Z"
/>
<path fill="#808080" d="
  M 179.72 -0.03
  L 180.81 0.00
  L 194.28 44.10
  A 1.30 1.29 -8.5 0 0 195.52 45.01
  L 240.00 45.29
  L 240.04 45.50
  Q 221.70 59.07 204.14 73.73
  A 1.71 1.70 62.1 0 0 203.60 75.51
  L 215.15 114.93
  L 209.94 115.00
  L 181.17 92.80
  A 1.36 1.32 45.1 0 0 179.53 92.77
  L 150.69 115.00
  L 145.33 114.90
  L 156.71 75.59
  A 1.93 1.87 -62.7 0 0 156.11 73.59
  Q 139.45 59.99 122.44 47.06
  Q 120.61 45.68 120.04 45.50
  L 120.00 45.29
  L 164.38 45.02
  A 1.87 1.86 8.3 0 0 166.15 43.70
  L 179.72 -0.03
  Z"
/>
<path fill="#808080" d="
  M 299.72 -0.03
  L 300.81 0.00
  L 314.28 44.10
  A 1.30 1.29 -8.5 0 0 315.52 45.01
  L 360.00 45.29
  L 360.04 45.50
  Q 341.70 59.07 324.14 73.73
  A 1.71 1.70 62.1 0 0 323.60 75.51
  L 335.15 114.93
  L 329.94 115.00
  L 301.17 92.80
  A 1.36 1.32 45.1 0 0 299.53 92.77
  L 270.69 115.00
  L 265.33 114.91
  L 276.71 75.59
  A 1.93 1.87 -62.7 0 0 276.11 73.59
  Q 259.45 59.99 242.44 47.06
  Q 240.61 45.68 240.04 45.50
  L 240.00 45.29
  L 284.38 45.02
  A 1.87 1.86 8.3 0 0 286.15 43.70
  L 299.72 -0.03
  Z"
/>
<path fill="#808080" d="
  M 419.72 -0.03
  L 420.81 0.00
  L 434.28 44.10
  A 1.30 1.29 -8.5 0 0 435.52 45.01
  L 480.00 45.29
  L 480.04 45.50
  Q 461.70 59.07 444.14 73.73
  A 1.71 1.70 62.1 0 0 443.60 75.51
  L 455.15 114.93
  L 449.94 115.00
  L 421.17 92.80
  A 1.36 1.32 45.1 0 0 419.53 92.77
  L 390.69 115.00
  L 385.33 114.91
  L 396.71 75.59
  A 1.93 1.87 -62.7 0 0 396.11 73.59
  Q 379.45 59.99 362.44 47.06
  Q 360.61 45.68 360.04 45.50
  L 360.00 45.29
  L 404.38 45.02
  A 1.87 1.86 8.3 0 0 406.15 43.70
  L 419.72 -0.03
  Z"
/>
<path fill="#808080" d="
  M 539.72 -0.03
  L 540.81 0.00
  L 554.33 44.28
  A 1.03 1.02 -8.4 0 0 555.31 45.00
  L 598.81 45.06
  Q 600.42 45.06 599.15 46.06
  L 564.49 73.32
  A 2.46 2.38 62.9 0 0 563.70 75.91
  L 575.21 114.93
  L 569.94 115.00
  L 541.17 92.80
  A 1.36 1.32 45.1 0 0 539.53 92.77
  L 510.69 115.00
  L 505.33 114.91
  L 516.71 75.59
  A 1.93 1.87 -62.7 0 0 516.11 73.59
  Q 499.45 59.99 482.44 47.06
  Q 480.61 45.68 480.04 45.50
  L 480.00 45.29
  L 524.38 45.02
  A 1.87 1.86 8.3 0 0 526.15 43.70
  L 539.72 -0.03
  Z"
/>
</svg>
